<mxfile host="app.diagrams.net" agent="Mozilla/5.0 (X11; Linux x86_64) AppleWebKit/537.36 (KHTML, like Gecko) Chrome/130.0.0.0 Safari/537.36" version="24.8.3">
  <diagram name="ページ1" id="LSsDlTmCGDbZERc84cAl">
    <mxGraphModel dx="994" dy="543" grid="1" gridSize="10" guides="1" tooltips="1" connect="1" arrows="1" fold="1" page="1" pageScale="1" pageWidth="827" pageHeight="1169" math="0" shadow="0">
      <root>
        <mxCell id="0" />
        <mxCell id="1" parent="0" />
        <mxCell id="VErRQQGY_gzdDGKv60oi-12" style="edgeStyle=orthogonalEdgeStyle;rounded=0;orthogonalLoop=1;jettySize=auto;html=1;exitX=1;exitY=0.5;exitDx=0;exitDy=0;" edge="1" parent="1" source="VErRQQGY_gzdDGKv60oi-1" target="VErRQQGY_gzdDGKv60oi-11">
          <mxGeometry relative="1" as="geometry" />
        </mxCell>
        <mxCell id="VErRQQGY_gzdDGKv60oi-1" value="さくらのくらうど&lt;br&gt;メールサーバー" style="rounded=0;whiteSpace=wrap;html=1;" vertex="1" parent="1">
          <mxGeometry x="200" y="100" width="120" height="60" as="geometry" />
        </mxCell>
        <mxCell id="VErRQQGY_gzdDGKv60oi-7" style="edgeStyle=orthogonalEdgeStyle;rounded=0;orthogonalLoop=1;jettySize=auto;html=1;exitX=1;exitY=0.5;exitDx=0;exitDy=0;entryX=0;entryY=0.5;entryDx=0;entryDy=0;startArrow=classic;startFill=1;" edge="1" parent="1" source="VErRQQGY_gzdDGKv60oi-2" target="VErRQQGY_gzdDGKv60oi-4">
          <mxGeometry relative="1" as="geometry" />
        </mxCell>
        <mxCell id="VErRQQGY_gzdDGKv60oi-8" style="edgeStyle=orthogonalEdgeStyle;rounded=0;orthogonalLoop=1;jettySize=auto;html=1;exitX=0.5;exitY=0;exitDx=0;exitDy=0;entryX=0.5;entryY=1;entryDx=0;entryDy=0;startArrow=classic;startFill=1;" edge="1" parent="1" source="VErRQQGY_gzdDGKv60oi-2" target="VErRQQGY_gzdDGKv60oi-1">
          <mxGeometry relative="1" as="geometry" />
        </mxCell>
        <mxCell id="VErRQQGY_gzdDGKv60oi-2" value="FastAPI" style="rounded=0;whiteSpace=wrap;html=1;" vertex="1" parent="1">
          <mxGeometry x="200" y="250" width="120" height="60" as="geometry" />
        </mxCell>
        <mxCell id="VErRQQGY_gzdDGKv60oi-9" style="edgeStyle=orthogonalEdgeStyle;rounded=0;orthogonalLoop=1;jettySize=auto;html=1;exitX=0.5;exitY=0;exitDx=0;exitDy=0;exitPerimeter=0;entryX=0.5;entryY=1;entryDx=0;entryDy=0;startArrow=classic;startFill=1;" edge="1" parent="1" source="VErRQQGY_gzdDGKv60oi-3" target="VErRQQGY_gzdDGKv60oi-2">
          <mxGeometry relative="1" as="geometry" />
        </mxCell>
        <mxCell id="VErRQQGY_gzdDGKv60oi-3" value="PostgreSQL" style="shape=cylinder3;whiteSpace=wrap;html=1;boundedLbl=1;backgroundOutline=1;size=15;" vertex="1" parent="1">
          <mxGeometry x="202" y="370" width="116" height="80" as="geometry" />
        </mxCell>
        <mxCell id="VErRQQGY_gzdDGKv60oi-4" value="Next.js" style="rounded=1;whiteSpace=wrap;html=1;" vertex="1" parent="1">
          <mxGeometry x="400" y="250" width="120" height="60" as="geometry" />
        </mxCell>
        <mxCell id="VErRQQGY_gzdDGKv60oi-5" value="Actor" style="shape=umlActor;verticalLabelPosition=bottom;verticalAlign=top;html=1;outlineConnect=0;" vertex="1" parent="1">
          <mxGeometry x="630" y="250" width="30" height="60" as="geometry" />
        </mxCell>
        <mxCell id="VErRQQGY_gzdDGKv60oi-6" style="rounded=0;orthogonalLoop=1;jettySize=auto;html=1;exitX=1;exitY=0.5;exitDx=0;exitDy=0;entryX=0.5;entryY=0.5;entryDx=0;entryDy=0;entryPerimeter=0;startArrow=classic;startFill=1;" edge="1" parent="1" source="VErRQQGY_gzdDGKv60oi-4" target="VErRQQGY_gzdDGKv60oi-5">
          <mxGeometry relative="1" as="geometry" />
        </mxCell>
        <mxCell id="VErRQQGY_gzdDGKv60oi-11" value="" style="verticalLabelPosition=bottom;html=1;verticalAlign=top;align=center;strokeColor=none;fillColor=#00BEF2;shape=mxgraph.azure.mobile;pointerEvents=1;" vertex="1" parent="1">
          <mxGeometry x="660" y="250" width="20" height="30" as="geometry" />
        </mxCell>
      </root>
    </mxGraphModel>
  </diagram>
</mxfile>
